<svg width="419" height="519" viewBox="0 0 419 519" fill="none" xmlns="http://www.w3.org/2000/svg">
<path d="M284.432 247.568L284.004 221.881C283.136 222.076 282.082 222.174 280.842 222.174C276.827 222.174 274.938 221.305 275.172 219.566C275.356 218.013 277.108 217.188 280.428 217.188C284.897 217.188 287.998 218.519 290.217 219.652L292.105 220.582L299.231 211.144L297.162 210.058C293.534 208.092 288.166 206.113 282.305 206.113C271.363 206.113 264.06 210.657 263.592 218.697C263.226 224.91 268.455 229.279 279.661 229.279C280.888 229.279 281.968 229.254 282.902 229.202L283.024 231.727L268.39 231.342C263.949 231.214 261.191 232.548 261.446 236.068C261.689 239.484 264.839 241.305 270.941 241.305C276.304 241.305 281.736 239.794 286.278 237.642L288.268 236.716L290.701 245.188L289.025 245.967C285.149 247.806 279.039 249.13 272.38 249.13C261.41 249.13 252.976 245.138 252.437 237.265C251.902 229.088 258.721 225.067 269.099 224.838L283.935 225.325C284.328 225.325 284.542 225.21 284.512 224.877L284.432 247.568Z" fill="#512BD4"/>
<path d="M178.932 249.13C162.647 249.13 152.741 241.241 151.848 229.475C150.918 216.386 160.699 206.113 176.195 206.113C185.037 206.113 192.155 208.699 196.788 211.361L198.793 212.636L193.8 220.959L191.689 219.718C188.323 217.838 183.678 216.536 177.852 216.536C168.902 216.536 163.023 221.751 163.537 229.424C164.031 236.683 170.393 238.902 177.167 238.902C182.906 238.902 187.479 237.774 191.088 235.986L193.422 234.849L195.986 243.841L193.96 244.718C189.895 246.452 184.203 249.13 178.932 249.13Z" fill="#512BD4"/>
<path d="M240.721 248.747L236.445 211.144L235.917 206.496H224.153L224.57 210.073L224.653 211.021C224.718 211.637 224.748 212.385 224.745 213.244C223.874 210.239 220.865 206.113 213.469 206.113C201.838 206.113 193.041 214.705 194.044 227.131C194.981 238.644 204.044 249.13 216.651 249.13C223.053 249.13 227.044 246.557 229.073 243.659L229.154 244.599L229.527 248.747H240.721ZM220.063 238.902C213.987 238.902 207.296 235.478 206.603 227.055C205.89 218.389 210.853 216.536 216.348 216.536C222.396 216.536 228.975 219.838 229.713 228.593C230.432 237.135 225.712 238.902 220.063 238.902Z" fill="#512BD4"/>
<path d="M310.951 238.902C304.566 238.902 300.522 235.33 299.859 227.566C299.221 219.882 302.537 216.536 308.569 216.536C310.638 216.536 313.236 216.925 315.347 217.767L317.181 218.493L313.823 227.129L311.791 226.523C310.332 226.083 308.998 225.828 308.004 225.828C305.131 225.828 303.476 226.328 303.661 228.476C303.842 230.562 305.785 231.342 308.888 231.342C316.361 231.342 320.964 234.039 321.62 241.933C322.34 250.74 314.834 254.125 305.965 254.125C300.876 254.125 294.934 252.994 291.532 250.527L289.996 249.394L293.07 240.293L295.276 241.645C298.334 243.634 301.886 244.641 305.948 244.641C309.467 244.641 311.696 243.659 311.496 241.232C311.318 238.847 308.856 238.902 310.951 238.902Z" fill="#512BD4"/>
<path d="M204.917 341.753C208.776 341.753 210.202 343.465 209.857 346.723C209.561 349.458 207.623 351.004 204.043 351.004C200.602 351.004 198.91 349.519 199.221 346.581C199.538 343.448 201.567 341.753 204.917 341.753ZM204.376 343.125C201.921 343.125 200.913 344.1 200.703 346.445C200.48 348.855 201.536 349.632 203.696 349.632C206.105 349.632 207.313 348.593 207.516 346.3C207.721 343.855 206.593 343.125 204.376 343.125Z" fill="#512BD4"/>
<path d="M217.256 341.771C220.327 341.771 221.944 342.928 221.751 345.143C221.605 346.843 220.541 347.749 218.749 348.069L222.446 350.882H220.502L217.019 348.132H215.388L215.067 350.882H213.533L214.369 341.895H217.165L217.256 341.771ZM217.026 343.142H215.566L215.281 346.939H216.845C218.879 346.939 219.937 346.278 220.076 344.914C220.229 343.451 219.185 343.142 217.026 343.142Z" fill="#512BD4"/>
<path d="M226.862 349.649C228.849 349.649 230.409 349.289 231.517 348.57L231.212 349.859C230.068 350.517 228.368 350.883 226.557 350.883C223.016 350.883 221.212 349.202 221.567 345.652C221.914 342.171 224.172 341.771 226.962 341.771C229.568 341.771 231.031 342.76 230.714 345.924L230.677 346.208H223.108C222.91 348.368 224.121 349.649 226.862 349.649ZM226.748 343.004C224.516 343.004 223.453 343.623 223.252 345.103H229.324C229.452 343.588 228.546 343.004 226.748 343.004Z" fill="#512BD4"/>
<path d="M353.163 261.8C358.405 261.8 362.652 265.974 362.652 271.156C362.652 276.338 358.405 280.512 353.163 280.512C347.922 280.512 343.675 276.338 343.675 271.156C343.675 265.974 347.922 261.8 353.163 261.8Z" fill="#512BD4"/>
<path d="M353.166 265.562C356.323 265.562 358.9 268.08 358.9 271.156C358.9 274.233 356.323 276.75 353.166 276.75C350.008 276.75 347.432 274.233 347.432 271.156C347.432 268.08 350.008 265.562 353.166 265.562Z" fill="#512BD4"/>
<path d="M353.163 268.353C351.538 268.353 350.227 269.636 350.227 271.227C350.227 272.82 351.538 274.102 353.163 274.102C354.79 274.102 356.101 272.82 356.101 271.227C356.101 269.636 354.79 268.353 353.163 268.353Z" fill="#512BD4"/>
<path d="M231.501 341.771L230.83 350.883H229.329L230 341.771H231.501Z" fill="#512BD4"/>
<path d="M240.536 348.132C240.221 349.336 239.176 350.883 236.004 350.883C233.057 350.883 231.599 349.175 231.933 345.535C232.265 341.932 234.24 341.771 236.665 341.771C238.302 341.771 239.606 342.228 240.359 342.715L240.114 344.003C239.354 343.517 238.227 343.089 236.723 343.089C234.434 343.089 233.422 343.878 233.227 345.653C233.017 347.548 234.068 349.566 237.163 349.566C238.14 349.566 238.809 349.371 239.137 349.202L239.357 347.461H236.61L236.736 346.144H240.773L240.536 348.132Z" fill="#512BD4"/>
<path d="M243.617 341.771L242.947 350.883H241.446L242.116 341.771H243.617Z" fill="#512BD4"/>
<path d="M254.651 341.771L253.98 350.883H252.632L249.005 344.832L248.328 350.883H246.944L247.614 341.771H248.977L252.577 347.849L253.267 341.771H254.651Z" fill="#512BD4"/>
<path d="M264.143 347.815H259.452L258.471 350.882H256.878L260.739 341.771H262.284L263.73 350.882H262.237L262.003 347.815H264.143ZM260.013 346.498H261.863L261.484 343.142L260.013 346.498Z" fill="#512BD4"/>
<path d="M266.329 341.771L265.658 350.883H264.157L264.828 341.771H266.329Z" fill="#512BD4"/>
<path d="M345.564 189.556L348.226 161.949L363.585 134.837L346.012 133.065L333.291 151.875L324.377 133.065L306.739 135.018L322.301 162.039L319.55 189.556H345.564Z" fill="#512BD4"/>
<path d="M377.908 138.768C377.908 138.768 365.947 134.905 358.811 148.159C358.811 148.159 360.861 138.386 377.908 138.768Z" fill="#512BD4"/>
<path d="M348.853 138.768C348.853 138.768 360.813 134.905 367.95 148.159C367.95 148.159 365.9 138.386 348.853 138.768Z" fill="#512BD4"/>
<path d="M376.677 325.202L369.85 333.251L378.239 338.388L371.319 346.592L362.911 340.698L359.254 351.33L349.417 349.895L353.446 339.135L342.665 338.388L343.554 327.637L354.335 328.717L358.927 318.628L367.244 322.979L362.026 332.17L373.459 325.623L376.677 325.202Z" fill="#512BD4"/>
<path d="M347.345 366.332C347.345 366.332 354.003 360.979 362.612 365.917C362.612 365.917 354.797 365.128 347.345 366.332Z" fill="#512BD4"/>
<path d="M378.335 366.332C378.335 366.332 371.677 360.979 363.068 365.917C363.068 365.917 370.883 365.128 378.335 366.332Z" fill="#512BD4"/>
<path d="M265.163 519C282.368 519 296.318 506.182 296.318 490.387C296.318 474.592 282.368 461.774 265.163 461.774C247.957 461.774 234.007 474.592 234.007 490.387C234.007 506.182 247.957 519 265.163 519Z" fill="#512BD4"/>
<path d="M254.165 491.092C254.697 489.323 256.331 488.032 258.169 488.032H268.606C270.477 488.032 271.532 489.321 271.044 491.092L267.627 504.251C267.096 506.02 265.462 507.311 263.624 507.311H253.187C251.316 507.311 250.261 506.022 250.748 504.251L254.165 491.092Z" fill="white"/>
<path d="M282.722 491.092C283.254 489.323 284.888 488.032 286.726 488.032H297.163C299.034 488.032 300.089 489.321 299.601 491.092L296.184 504.251C295.653 506.02 294.019 507.311 292.181 507.311H281.744C279.873 507.311 278.818 506.022 279.305 504.251L282.722 491.092Z" fill="white"/>
<path d="M262.377 470.982C262.909 469.213 264.543 467.922 266.381 467.922H276.818C278.689 467.922 279.744 469.211 279.256 470.982L275.839 484.141C275.308 485.91 273.674 487.201 271.836 487.201H261.399C259.528 487.201 258.473 485.912 258.96 484.141L262.377 470.982Z" fill="white"/>
<path d="M222.017 499.769C227.323 499.769 231.632 495.591 231.632 490.446C231.632 485.302 227.323 481.124 222.017 481.124C216.71 481.124 212.401 485.302 212.401 490.446C212.401 495.591 216.71 499.769 222.017 499.769Z" fill="#512BD4"/>
<path d="M217.607 490.517C217.848 489.521 218.695 488.778 219.646 488.778H225.164C226.133 488.778 226.686 489.52 226.456 490.517L224.597 498.015C224.357 499.011 223.509 499.754 222.558 499.754H217.041C216.071 499.754 215.518 499.012 215.748 498.015L217.607 490.517Z" fill="white"/>
<path d="M219.403 483.184C219.643 482.188 220.491 481.445 221.442 481.445H226.96C227.929 481.445 228.482 482.187 228.252 483.184L226.393 490.682C226.153 491.678 225.305 492.421 224.354 492.421H218.837C217.867 492.421 217.314 491.679 217.544 490.682L219.403 483.184Z" fill="white"/>
<path d="M320.901 481.124C315.594 481.124 311.285 485.302 311.285 490.446C311.285 495.591 315.594 499.769 320.901 499.769C326.207 499.769 330.516 495.591 330.516 490.446C330.516 485.302 326.207 481.124 320.901 481.124Z" fill="#512BD4"/>
<path d="M325.311 490.517C325.07 489.521 324.223 488.778 323.272 488.778H317.754C316.785 488.778 316.232 489.52 316.463 490.517L318.321 498.015C318.562 499.011 319.409 499.754 320.36 499.754H325.878C326.847 499.754 327.4 499.012 327.17 498.015L325.311 490.517Z" fill="white"/>
<path d="M323.515 483.184C323.275 482.188 322.427 481.445 321.476 481.445H315.958C314.989 481.445 314.436 482.187 314.666 483.184L316.525 490.682C316.765 491.678 317.613 492.421 318.564 492.421H324.082C325.051 492.421 325.604 491.679 325.374 490.682L323.515 483.184Z" fill="white"/>
<path d="M61.1719 295.704C61.1719 295.704 60.245 295.225 60.245 292.542C60.245 290.022 60.245 213.435 60.245 211.56C60.245 211.033 60.245 211.132 60.245 210.637C60.245 204.094 60.245 202.365 60.245 191.966C60.245 186.178 60.245 167.926 60.245 163.302C60.245 156.997 60.245 139.516 60.245 126.369C60.245 106.446 60.245 87.0563 60.245 69.5723C60.245 50.7361 59.9697 0 59.9697 0H333.591V157.332C333.591 157.332 342.273 149.651 356.535 149.651C361.839 149.651 373.069 151.192 382.763 155.871C382.763 155.871 403.584 164.251 412.387 186.111C414.981 192.529 418.994 204.669 419.06 217.207C419.145 232.992 419.015 258.815 419.015 263.277C419.015 267.768 419.015 270.429 419.015 271.304C419.015 272.593 419.015 289.137 419.015 290.498C419.015 294.441 417.971 295.376 417.971 295.376L61.1719 295.704Z" fill="#FAF9F9"/>
<path d="M333.591 0.0565758L59.9697 0V64.7483L333.591 64.8049V0.0565758Z" fill="#512BD4"/>
<path d="M180.169 28.0019C182.166 29.9715 183.165 32.1994 183.165 34.6856C183.165 37.1477 182.169 39.3605 180.178 41.3241C178.211 43.2635 175.973 44.2332 173.466 44.2332C170.982 44.2332 168.741 43.2635 166.743 41.3241C164.769 39.3605 163.782 37.1477 163.782 34.6856C163.782 32.1994 164.778 29.9715 166.77 28.0019C168.762 26.0323 170.997 25.0475 173.475 25.0475C175.977 25.0475 178.22 26.0323 180.169 28.0019ZM169.414 30.6023C168.183 31.814 167.567 33.1779 167.567 34.6942C167.567 36.1863 168.183 37.5381 169.414 38.7497C170.645 39.9373 171.994 40.5311 173.463 40.5311C174.955 40.5311 176.308 39.9373 177.522 38.7497C178.759 37.5381 179.378 36.1863 179.378 34.6942C179.378 33.1779 178.762 31.814 177.531 30.6023C176.323 29.3665 174.967 28.7486 173.463 28.7486C171.982 28.7486 170.637 29.3665 169.414 30.6023ZM237.323 25.0789C239.514 25.0789 241.267 25.8008 242.582 27.2446C243.92 28.6884 244.589 30.5347 244.589 32.7834C244.589 33.8264 244.457 34.7894 244.192 35.6724H231.525C231.633 36.7876 232.094 37.6831 232.908 38.3588C233.721 39.0105 234.653 39.3363 235.704 39.3363C237.328 39.3363 238.549 38.6389 239.368 37.244L243.523 38.0602C242.905 39.5018 241.94 40.6206 240.629 41.4167C239.317 42.1886 237.793 42.5746 236.055 42.5746C233.736 42.5746 231.803 41.8333 230.256 40.3507C228.734 38.8681 227.972 36.9831 227.972 34.6956C227.972 32.408 228.734 30.5109 230.256 29.0044C231.803 27.4979 233.772 26.7447 236.164 26.7447C236.569 26.7447 236.951 26.7689 237.323 25.0789ZM231.633 32.9979H240.826C240.742 31.9549 240.353 31.1074 239.658 30.4555C238.964 29.7794 238.094 29.4414 237.048 29.4414C236.002 29.4414 235.096 29.7673 234.33 30.4192C233.589 31.0711 233.104 31.9307 232.876 32.9979H231.633ZM258.839 25.0789C260.145 25.0789 261.321 25.368 262.368 25.9462C263.414 26.5244 264.228 27.3314 264.81 28.367C265.417 29.3786 265.72 30.5076 265.72 31.7541V42.3031H261.717V32.7834C261.717 31.4074 261.364 30.3373 260.657 29.5731C259.975 28.7848 259.079 28.3906 257.97 28.3906C256.884 28.3906 255.952 28.7848 255.173 29.5731C254.418 30.3373 254.041 31.3954 254.041 32.7471V42.3031H250.038V20.5L254.041 19.4712V27.8455C254.623 26.906 255.361 26.1741 256.254 25.6499C257.171 25.1257 258.096 24.8636 258.839 25.0789ZM179.267 86.0461V101H175.624V87.0399C175.624 85.7038 175.282 84.6447 174.597 83.8625C173.933 83.0599 173.052 82.6586 171.954 82.6586C170.856 82.6586 169.918 83.0599 169.141 83.8625C168.384 84.6447 167.962 85.7242 167.875 87.1016V101H164.162V80.2552H167.875V82.4135C168.473 81.5491 169.233 80.8694 170.155 80.3743C171.098 79.8588 172.134 79.601 173.265 79.601C174.643 79.601 175.833 79.9106 176.834 80.5298C177.835 81.1286 178.595 81.9418 179.112 82.9694C179.651 83.9766 179.92 85.1175 179.92 86.392L179.267 86.0461ZM189.567 101.308C187.966 101.308 186.488 100.914 185.135 100.126C183.803 99.3382 182.74 98.2761 181.947 96.9395C181.175 95.5826 180.789 94.0818 180.789 92.437C180.789 90.7922 181.186 89.2914 181.978 87.9345C182.791 86.5572 183.874 85.4748 185.228 84.6874C186.582 83.8796 188.059 83.4757 189.66 83.4757C191.262 83.4757 192.729 83.8796 194.062 84.6874C195.416 85.4748 196.479 86.5572 197.25 87.9345C198.043 89.2914 198.439 90.7922 198.439 92.437C198.439 94.0614 198.043 95.5521 197.25 96.909C196.479 98.2456 195.416 99.3076 194.062 100.095C192.729 100.883 191.262 101.276 189.66 101.276L189.567 101.308ZM189.567 97.833C190.46 97.833 191.303 97.6331 192.096 97.2334C192.888 96.8133 193.514 96.2339 193.973 95.495C194.432 94.7358 194.661 93.8634 194.661 92.8778C194.661 91.8922 194.432 91.0198 193.973 90.2606C193.514 89.5014 192.888 88.9117 192.096 88.4916C191.303 88.0511 190.46 87.8308 189.567 87.8308C188.653 87.8308 187.81 88.0511 187.039 88.4916C186.287 88.9117 185.682 89.5014 185.223 90.2606C184.785 91.0198 184.566 91.8922 184.566 92.8778C184.566 93.8634 184.795 94.7358 185.254 95.495C185.713 96.2339 186.318 96.8133 187.07 97.2334C187.842 97.6331 188.674 97.833 189.567 97.833ZM202.091 82.2901V85.8272H195.701V101H191.988V85.8272H186.831V82.2901H191.988V80.4398C191.988 78.1146 192.519 76.3994 193.582 75.2942C194.664 74.189 196.185 73.6364 198.142 73.6364C198.621 73.6364 199.049 73.6772 199.427 73.7591C199.824 73.8204 200.108 73.9021 200.283 74.0041L199.489 77.6021C199.297 77.5202 199.08 77.4587 198.84 77.4178C198.601 77.3768 198.385 77.3564 198.195 77.3564C197.292 77.3564 196.613 77.602 196.156 78.0933C195.72 78.5642 195.502 79.3209 195.502 80.3635L195.701 82.2901H202.091ZM214.039 101.032C211.847 101.032 209.833 100.434 207.999 99.2363C206.185 98.0186 204.73 96.3505 203.635 94.2318C202.541 92.0927 201.994 89.626 201.994 86.8316C201.994 84.0372 202.541 81.5807 203.635 79.462C204.73 77.3229 206.185 75.6548 207.999 74.4576C209.833 73.2399 211.847 72.6311 214.039 72.6311C216.232 72.6311 218.236 73.2399 220.05 74.4576C221.885 75.6548 223.34 77.3229 224.414 79.462C225.508 81.5807 226.056 84.0372 226.056 86.8316C226.056 89.626 225.508 92.0927 224.414 94.2318C223.34 96.3505 221.885 98.0186 220.05 99.2363C218.236 100.434 216.232 101.032 214.039 101.032ZM214.039 97.2334C215.6 97.2334 216.982 96.8337 218.185 96.0343C219.388 95.2146 220.325 94.0564 220.997 92.5598C221.668 91.0632 222.004 89.3106 222.004 87.3019C222.004 85.2932 221.668 83.5406 220.997 82.044C220.325 80.527 219.388 79.3689 218.185 78.5695C216.982 77.7498 215.6 77.3399 214.039 77.3399C212.479 77.3399 211.097 77.7498 209.894 78.5695C208.691 79.3689 207.754 80.527 207.082 82.044C206.411 83.5406 206.075 85.2932 206.075 87.3019C206.075 89.3106 206.411 91.0632 207.082 92.5598C207.754 94.0564 208.691 95.2146 209.894 96.0343C211.097 96.8337 212.479 97.2334 214.039 97.2334ZM240.103 80.2552V83.7606C239.239 83.7402 238.497 83.73 237.88 83.73C236.254 83.73 234.935 84.2082 233.921 85.1647C232.907 86.1212 232.399 87.5456 232.399 89.438V101H228.686V80.2552H232.399V83.0072C232.977 81.9163 233.807 81.0702 234.889 80.4688C235.972 79.8471 237.213 79.5362 238.612 79.5362C239.106 79.5362 239.599 79.5872 240.103 79.6896V80.2552ZM250.444 78.0933C248.843 78.0933 247.365 78.5031 246.01 79.3229C244.655 80.1223 243.571 81.2926 242.757 82.8339C241.943 84.355 241.536 86.1109 241.536 88.1018C241.536 90.0723 241.943 91.8282 242.757 93.3697C243.571 94.8907 244.656 96.061 246.01 96.8807C247.365 97.6801 248.843 98.0797 250.444 98.0797C252.044 98.0797 253.471 97.6903 254.723 96.9115C255.996 96.1322 256.956 95.0326 257.605 93.6128L261.38 95.5241C260.408 97.412 259.002 98.8901 257.161 99.9583C255.341 101.006 253.244 101.53 250.87 101.53C248.17 101.53 245.731 100.922 243.551 99.7043C241.392 98.4867 239.677 96.8092 238.406 94.6718C237.156 92.5344 236.531 90.0926 236.531 87.3464C236.531 84.6003 237.167 82.1585 238.438 80.021C239.709 77.8632 241.434 76.1754 243.613 74.9578C245.814 73.7401 248.253 73.1313 250.931 73.1313C253.366 73.1313 255.543 73.6459 257.463 74.675C259.382 75.7042 260.816 77.1534 261.765 79.0225L258.213 81.0863C257.528 79.6896 256.549 78.613 255.279 77.8564C254.028 77.0795 252.531 76.691 250.788 76.691L250.444 78.0933ZM272.308 101.308C270.706 101.308 269.228 100.914 267.875 100.126C266.543 99.3382 265.48 98.2761 264.687 96.9395C263.915 95.5826 263.529 94.0818 263.529 92.437C263.529 90.7922 263.925 89.2914 264.718 87.9345C265.531 86.5572 266.614 85.4748 267.968 84.6874C269.322 83.8796 270.799 83.4757 272.4 83.4757C274.002 83.4757 275.469 83.8796 276.802 84.6874C278.156 85.4748 279.219 86.5572 279.99 87.9345C280.783 89.2914 281.179 90.7922 281.179 92.437C281.179 94.0614 280.783 95.5521 279.99 96.909C279.219 98.2456 278.156 99.3076 276.802 100.095C275.469 100.883 274.002 101.276 272.4 101.276L272.308 101.308ZM272.308 97.833C273.2 97.833 274.043 97.6331 274.836 97.2334C275.628 96.8133 276.254 96.2339 276.713 95.495C277.172 94.7358 277.401 93.8634 277.401 92.8778C277.401 91.8922 277.172 91.0198 276.713 90.2606C276.254 89.5014 275.628 88.9117 274.836 88.4916C274.043 88.0511 273.2 87.8308 272.308 87.8308C271.393 87.8308 270.55 88.0511 269.779 88.4916C269.027 88.9117 268.422 89.5014 267.963 90.2606C267.525 91.0198 267.306 91.8922 267.306 92.8778C267.306 93.8634 267.535 94.7358 267.994 95.495C268.453 96.2339 269.058 96.8133 269.81 97.2334C270.582 97.6331 271.414 97.833 272.308 97.833ZM299.021 83.6681V101H295.308V98.1724C294.71 99.0774 293.939 99.7877 292.994 100.303C292.069 100.819 291.062 101.076 289.971 101.076C288.593 101.076 287.403 100.767 286.402 100.148C285.401 99.5295 284.631 98.6966 284.092 97.6493C283.553 96.582 283.283 95.3914 283.283 94.0775V80.2552H286.996V93.084C286.996 94.42 287.34 95.4798 288.025 96.2636C288.731 97.027 289.639 97.4089 290.751 97.4089C291.863 97.4089 292.798 97.0066 293.554 96.2019C294.331 95.3768 294.72 94.2552 294.72 92.8371V80.2552H298.402L299.021 83.6681ZM316.447 79.6896V100.985H312.734V98.2033C312.178 99.1085 311.448 99.8189 310.543 100.335C309.659 100.85 308.693 101.108 307.644 101.108C306.225 101.108 304.941 100.714 303.793 99.9267C302.644 99.1188 301.734 98.0468 301.062 96.7105C300.411 95.3539 300.086 93.8327 300.086 92.1472C300.086 90.4617 300.422 88.9507 301.093 87.6142C301.786 86.2573 302.707 85.1952 303.855 84.428C305.024 83.6403 306.307 83.2465 307.706 83.2465C308.755 83.2465 309.701 83.4719 310.543 83.9226C311.407 84.3733 312.117 84.9986 312.672 85.7986V72.2009L316.447 71.172V79.6896ZM308.641 97.6331C309.555 97.6331 310.398 97.4128 311.17 96.9723C311.962 96.5318 312.579 95.9218 313.018 95.1422C313.477 94.3627 313.706 93.4802 313.706 92.495C313.706 91.5097 313.477 90.6375 313.018 89.8784C312.558 89.0989 311.942 88.4889 311.17 88.0484C310.398 87.6079 309.555 87.3876 308.641 87.3876C307.728 87.3876 306.885 87.6079 306.113 88.0484C305.361 88.4889 304.756 89.0989 304.297 89.8784C303.858 90.6375 303.64 91.5097 303.64 92.495C303.64 93.4802 303.858 94.3627 304.297 95.1422C304.756 95.9218 305.361 96.5318 306.113 96.9723C306.885 97.4128 307.728 97.6331 308.641 97.6331Z" fill="white"/>
<path d="M322.486 128.642L322.498 128.663L322.547 128.589L373.951 126.369L368.695 187.633L316.853 189.556L316.85 189.549L316.837 189.557L256.918 192.064V191.697C256.918 190.931 256.918 190.21 256.918 189.531V189.531C256.916 186.305 256.913 183.913 256.799 182.138C256.607 179.188 256.084 178.206 255.959 177.994C255.717 177.581 255.436 177.259 255.103 176.966C254.949 176.832 254.306 176.367 251.324 175.975C249.522 175.734 247.122 175.638 243.868 175.64C243.868 175.64 243.868 175.64 243.868 175.64H174.12C173.997 175.64 173.865 175.64 173.724 175.64C172.168 175.638 170.054 175.636 168.11 175.438C166.043 175.228 163.957 174.791 162.243 173.866C161.444 173.425 160.737 172.871 160.13 172.207C159.415 171.424 158.839 170.476 158.474 169.291C157.783 167.058 157.81 164.375 157.947 161.062C157.955 160.868 157.964 160.671 157.972 160.471C157.972 160.471 157.972 160.471 157.972 160.471L159.876 126.369L219.75 128.642L220.052 129.075L220.056 129.063L220.059 129.072C220.308 129.072 220.557 129.072 220.808 129.072C220.837 129.072 220.866 129.072 220.895 129.072H322.192C322.294 129.072 322.391 129.066 322.486 128.642Z" fill="#68217A"/>
<path d="M212.872 152.175C213.404 150.406 215.038 149.115 216.876 149.115H232.298C234.169 149.115 235.224 150.404 234.736 152.175L231.319 165.334C230.788 167.103 229.154 168.394 227.316 168.394H211.894C210.023 168.394 208.968 167.105 209.455 165.334L212.872 152.175Z" fill="white"/>
<path d="M241.428 152.175C241.96 150.406 243.594 149.115 245.432 149.115H260.854C262.725 149.115 263.78 150.404 263.293 152.175L259.876 165.334C259.344 167.103 257.71 168.394 255.872 168.394H240.45C238.579 168.394 237.525 167.105 238.012 165.334L241.428 152.175Z" fill="white"/>
<path d="M270.048 152.175C270.58 150.406 272.214 149.115 274.052 149.115H289.474C291.345 149.115 292.4 150.404 291.913 152.175L288.496 165.334C287.964 167.103 286.33 168.394 284.492 168.394H269.07C267.2 168.394 266.145 167.105 266.632 165.334L270.048 152.175Z" fill="white"/>
<path d="M157.973 160.471C157.963 160.678 157.954 160.877 157.946 161.069C157.809 164.382 157.782 167.065 158.472 169.298C158.837 170.483 159.413 171.431 160.128 172.214C160.734 172.878 161.441 173.432 162.24 173.873C163.954 174.798 166.04 175.235 168.107 175.445C170.052 175.642 172.166 175.645 173.722 175.647C173.862 175.647 173.994 175.647 174.117 175.647H221.481C221.481 175.647 216.621 168.386 216.621 159.541C216.621 150.695 221.481 143.221 221.481 143.221L159.875 141.221L157.973 160.471Z" fill="#FAF9F9"/>
<path d="M322.192 129.072C322.192 129.072 327.053 136.346 327.053 145.191C327.053 154.037 322.192 161.51 322.192 161.51H264.762V149.114L299.306 145.191L264.762 141.268V129.072H322.192Z" fill="#FAF9F9"/>
<path d="M256.799 182.144C256.913 183.92 256.916 186.313 256.917 189.539V189.539C256.918 190.218 256.918 190.938 256.918 191.704L316.837 189.556L318.74 157.587C318.74 157.587 303.263 158.363 303.263 175.647H251.321C254.303 176.039 254.946 176.504 255.1 176.638C255.433 176.931 255.715 177.253 255.956 177.666C256.081 177.878 256.605 178.86 256.796 181.81C256.807 181.966 256.803 182.054 256.799 182.144Z" fill="#FAF9F9"/>
<path d="M71.7531 93.9851L91.9621 92.0564L92.4691 93.5673L74.7651 95.3039L76.4311 101.061L91.8471 99.4429L92.3331 100.902L76.9171 102.52L78.6951 108.617L96.6111 106.848L97.1001 108.321L77.1061 110.228L71.7531 93.9851Z" fill="#512BD4"/>
<path d="M119.323 115.371L123.655 102.685L125.355 103.24L122.233 111.854L135.622 116.225L134.901 118.083L119.323 115.371Z" fill="#512BD4"/>
<path d="M154.776 134.065L150.816 129.252L140.114 137.244L138.763 135.565L149.465 127.573L145.568 122.833L147.074 121.635L156.281 132.867L154.776 134.065Z" fill="#512BD4"/>
<path d="M180.484 160.382C179.488 161.052 178.433 161.451 177.319 161.58C176.21 161.703 175.133 161.554 174.087 161.134C173.035 160.707 172.116 160.029 171.33 159.098C170.544 158.168 170.028 157.194 169.783 156.176C169.538 155.158 169.561 154.148 169.854 153.146C170.14 152.138 170.689 151.214 171.502 150.375L172.606 151.784C172.004 152.408 171.582 153.089 171.339 153.826C171.096 154.564 171.036 155.307 171.159 156.057C171.276 156.8 171.577 157.499 172.061 158.154C172.545 158.809 173.117 159.299 173.778 159.623C174.432 159.941 175.118 160.073 175.837 160.021C176.556 159.968 177.238 159.729 177.883 159.304C178.509 158.893 179.004 158.379 179.37 157.764C179.735 157.148 179.943 156.488 179.994 155.783C180.044 155.071 179.925 154.374 179.637 153.691C179.349 153.008 178.888 152.4 178.256 151.865L179.361 150.456C180.213 151.183 180.847 152.035 181.264 153.014C181.674 153.986 181.816 154.987 181.691 155.988C181.566 156.989 181.176 157.925 180.522 158.798C179.861 159.663 179.089 160.343 178.206 160.837L180.484 160.382Z" fill="#512BD4"/>
<path d="M206.116 193.088L190.896 184.935L191.833 183.501L207.053 191.654L206.116 193.088Z" fill="#512BD4"/>
<path d="M225.831 219.625L212.654 207.698L213.993 206.23L227.17 218.157L225.831 219.625Z" fill="#512BD4"/>
<path d="M239.021 250.252L238.001 245.982L234.081 246.599L234.553 248.419L232.625 248.728L232.153 246.908L218.637 249.048L218.335 247.856L231.851 245.716L230.939 242.291L232.867 241.982L233.779 245.407L237.699 244.79L238.719 249.06L239.021 250.252Z" fill="#512BD4"/>
<path d="M155.831 249.693C155.831 259.246 148.124 266.954 138.57 266.954C129.017 266.954 121.309 259.246 121.309 249.693C121.309 240.139 129.017 232.432 138.57 232.432C148.124 232.432 155.831 240.139 155.831 249.693Z" fill="#512BD4"/>
<path d="M151.037 249.693C151.037 256.604 145.482 252.16 138.571 252.16C131.659 252.16 126.104 256.604 126.104 249.693C126.104 242.782 131.659 237.227 138.571 237.227C145.482 237.227 151.037 242.782 151.037 249.693Z" fill="white"/>
<path d="M120.367 196.299L114.883 190.814L90.2656 215.432L96.8116 221.978L98.0106 220.779L93.0776 215.846L96.9216 212.002L101.436 216.516L102.623 215.329L98.1086 210.815L102.268 206.655L107.201 211.588L108.388 210.401L103.455 205.468L120.367 196.299Z" fill="#512BD4"/>
<path d="M94.7016 174.591L84.5226 157.612L70.6106 162.919L71.1456 160.996L82.6846 156.536L92.3116 172.623L106.531 167.076L107.066 168.999L94.7016 174.591Z" fill="#512BD4"/>
<path d="M79.9786 134.369L76.5436 119.363L64.4496 117.606L64.6996 116.405L78.1266 118.397L81.8076 134.517L95.9746 136.346L95.7246 137.547L79.9786 134.369Z" fill="#512BD4"/>
<path d="M70.8116 103.322L69.1326 104.065L59.3166 87.8773L60.9956 87.1343L70.8116 103.322Z" fill="#512BD4"/>
<path d="M98.5116 127.676L96.8406 126.567L105.176 111.544L106.847 112.653L98.5116 127.676Z" fill="#512BD4"/>
<path d="M125.699 154.872L124.093 153.658L133.648 139.639L135.253 140.853L125.699 154.872Z" fill="#512BD4"/>
<path d="M148.256 182.919L147.077 181.307L158.595 170.985L159.774 172.597L148.256 182.919Z" fill="#512BD4"/>
<path d="M162.163 215.529L161.553 213.773L176.435 207.547L177.045 209.303L162.163 215.529Z" fill="#512BD4"/>
<path d="M168.659 248.275L168.755 246.472L184.475 247.439L184.379 249.243L168.659 248.275Z" fill="#512BD4"/>
<path d="M144.128 266.954L144.867 265.308L159.074 272.633L158.335 274.28L144.128 266.954Z" fill="#512BD4"/>
<path d="M114.156 267.647L115.427 266.1L128.615 277.137L127.344 278.684L114.156 267.647Z" fill="#512BD4"/>
<path d="M86.5696 253.966L88.0666 252.636L99.5966 265.307L98.0996 266.637L86.5696 253.966Z" fill="#512BD4"/>
<path d="M66.8436 229.199L68.5086 228.067L77.6576 243.397L75.9926 244.529L66.8436 229.199Z" fill="#512BD4"/>
<path d="M58.4756 199.361L60.2086 198.467L67.9526 213.936L66.2196 214.83L58.4756 199.361Z" fill="#512BD4"/>
<path d="M60.3046 166.871L62.0366 166.205L68.6136 181.973L66.8816 182.639L60.3046 166.871Z" fill="#512BD4"/>
</svg>